<?xml version="1.0" encoding="iso-8859-1"?>
<!-- Uploaded to: SVG Repo, www.svgrepo.com, Generator: SVG Repo Mixer Tools -->
<svg height="800px" width="800px" version="1.1" id="Layer_1" xmlns="http://www.w3.org/2000/svg" xmlns:xlink="http://www.w3.org/1999/xlink" 
	 viewBox="0 0 512 512" xml:space="preserve">
<path style="fill:#2D527C;" d="M299.874,160.395c-44.221,0-80.197-35.977-80.197-80.197S255.653,0,299.874,0
	c19.197,0,37.773,6.891,52.305,19.403c6.334,5.453,7.047,15.006,1.595,21.34c-5.453,6.334-15.006,7.047-21.34,1.595
	c-9.043-7.787-20.606-12.075-32.56-12.075c-27.533,0-49.934,22.401-49.934,49.934s22.401,49.934,49.934,49.934
	c8.357,0,15.132,6.774,15.132,15.132S308.231,160.395,299.874,160.395z"/>
<path style="fill:#CEE8FA;" d="M299.874,145.263c-4.771,0-9.416-0.528-13.894-1.503l-11.031,38.097h-121.47
	c-2.09,0-3.783,1.693-3.783,3.783v52.351c0,2.09,1.693,3.783,3.783,3.783h108.189l-11.65,52.563H131.579
	c-1.776,0-3.314,1.236-3.695,2.97L95.996,408.75H40.584c-2.09,0-3.783,1.693-3.783,3.783v52.351c0,2.09,1.693,3.783,3.783,3.783
	h97.22c1.749,0,3.27-1.198,3.678-2.899l34.88-111.514h118.585c1.766,0,3.296-1.221,3.689-2.942l59.248-240.096
	c0.12-0.525,0.113-1.061,0.012-1.577C347.145,130.775,325.209,145.263,299.874,145.263z"/>
<g>
	<path style="fill:#2D527C;" d="M137.803,483.799h-97.22c-10.43,0-18.914-8.484-18.914-18.914v-52.351
		c0-10.43,8.484-18.914,18.914-18.914h44.004l28.67-100.2c2.127-8.274,9.73-14.215,18.321-14.215h106.295l4.943-22.299h-89.337
		c-10.43,0-18.914-8.484-18.914-18.914V185.64c0-10.43,8.484-18.914,18.914-18.914h110.097l7.868-27.173
		c2.214-7.648,9.978-12.266,17.751-10.577c3.526,0.767,7.118,1.156,10.677,1.156c18.887,0,35.951-10.48,44.531-27.35
		c2.922-5.747,9.159-9.015,15.552-8.132c6.387,0.881,11.515,5.711,12.774,12.034c0.527,2.642,0.493,5.296-0.097,7.893
		c-0.02,0.089-0.041,0.177-0.064,0.266l-59.227,240.014c-2.04,8.564-9.58,14.531-18.4,14.531H187.48L156.016,469.98
		C153.739,478.151,146.346,483.799,137.803,483.799z M51.931,453.536h77.521l32.466-103.798c1.975-6.314,7.825-10.615,14.442-10.615
		h109.696l45.723-185.295c-10.736,4.639-22.632,6.958-34.847,6.513l-7.449,25.725c-1.873,6.47-7.799,10.923-14.534,10.923h-110.12
		v29.653h96.841c4.588,0,8.929,2.082,11.801,5.661c2.872,3.579,3.966,8.266,2.972,12.745l-11.65,52.563
		c-1.536,6.927-7.678,11.857-14.773,11.857H140.142l-29.599,103.444c-1.858,6.493-7.794,10.969-14.548,10.969H51.931V453.536z"/>
	<path style="fill:#2D527C;" d="M310.468,512c-44.44,0-87.11-16.347-120.151-46.029c-4.406-3.957-6.098-10.122-4.329-15.773
		l14.858-47.501c2.494-7.976,10.982-12.422,18.958-9.925c7.976,2.494,12.42,10.982,9.925,18.958l-11.854,37.902
		c26.318,20.767,58.842,32.103,92.595,32.103c82.49,0,149.6-67.11,149.6-149.6c0-53.126-28.578-102.73-74.581-129.452
		c-7.225-4.198-9.681-13.46-5.484-20.685c4.197-7.227,13.46-9.68,20.685-5.484c55.294,32.12,89.643,91.75,89.643,155.621
		C490.331,431.314,409.645,512,310.468,512z"/>
</g>
</svg>