<?xml version="1.0" encoding="iso-8859-1"?>
<!-- Uploaded to: SVG Repo, www.svgrepo.com, Generator: SVG Repo Mixer Tools -->
<svg height="800px" width="800px" version="1.1" id="Layer_1" xmlns="http://www.w3.org/2000/svg" xmlns:xlink="http://www.w3.org/1999/xlink" 
	 viewBox="0 0 512.001 512.001" xml:space="preserve">
<polyline style="fill:#E6E6E6;" points="180.17,299.052 100.497,299.052 100.497,242.041 237.181,242.041 302.744,242.041 
	421.173,242.041 421.173,299.052 245.721,299.052 "/>
<polyline style="fill:#DD852C;" points="350.841,299.052 332.094,299.052 332.094,242.041 364.255,242.041 379.683,242.041 
	421.173,242.041 421.173,299.052 366.265,299.052 "/>
<polyline style="fill:#FFCA6C;" points="107.995,299.052 100.497,299.052 100.497,242.041 113.361,242.041 119.531,242.041 
	129.001,242.041 129.001,299.052 114.165,299.052 "/>
<path style="fill:#FC583D;" d="M256.001,0C114.615,0,0,114.615,0,256.001s114.615,256.001,256.001,256.001
	s256.001-114.615,256.001-256.001S397.385,0,256.001,0z M256.001,46.351c49.544,0,95.064,17.196,130.944,45.931L92.281,386.944
	c-28.735-35.88-45.931-81.4-45.931-130.944C46.351,140.214,140.214,46.351,256.001,46.351z M256.001,465.65
	c-49.544,0-95.064-17.196-130.944-45.931l294.663-294.663c28.735,35.879,45.931,81.4,45.931,130.944
	C465.65,371.786,371.786,465.65,256.001,465.65z"/>
<path style="fill:#E6E6E6;" d="M119.773,225.029c-1.502-2.72-2.29-5.783-2.223-8.893c0.063-2.948,0.931-5.719,1.46-8.593
	c0.923-5.009-0.036-10.877-2.373-15.381c-1.226-2.364-2.58-4.635-3.494-7.148c-1.023-2.807-1.516-5.718-1.6-8.698
	c-0.14-4.962,0.983-10.19,3.459-14.506c1.608-2.804,3.901-4.978,6.176-7.227c2.397-2.368,3.915-5.141,5.721-7.94
	c1.437,2.582,2.234,5.489,2.245,8.448c0.011,3.031-0.847,5.877-1.417,8.822c-0.957,4.947-0.093,10.82,2.166,15.311
	c1.179,2.346,2.539,4.576,3.478,7.041c1.113,2.927,1.651,5.968,1.74,9.091c0.14,4.958-0.988,10.186-3.465,14.496
	c-1.611,2.804-3.899,4.974-6.171,7.229C123.085,219.453,121.569,222.226,119.773,225.029z"/>
</svg>