<?xml version="1.0" encoding="iso-8859-1"?>
<!-- Uploaded to: SVG Repo, www.svgrepo.com, Generator: SVG Repo Mixer Tools -->
<svg height="800px" width="800px" version="1.1" id="Layer_1" xmlns="http://www.w3.org/2000/svg" xmlns:xlink="http://www.w3.org/1999/xlink" 
	 viewBox="0 0 508 508" xml:space="preserve">
<circle style="fill:#324A5E;" cx="254" cy="254" r="254"/>
<g>
	<path style="fill:#CED5E0;" d="M255.8,177.5h-10.9c-2.9,0-5-2.5-4.6-5.3l5.5-39c0.3-2.3,2.3-4,4.6-4l0,0c2.3,0,4.3,1.7,4.6,4
		l5.5,39C260.9,175,258.7,177.5,255.8,177.5z"/>
	<polygon style="fill:#CED5E0;" points="342.3,193.3 273,201.2 273,189.4 342.3,189.4 	"/>
	<circle style="fill:#CED5E0;" cx="342.3" cy="191.3" r="1.9"/>
	<polygon style="fill:#CED5E0;" points="158.4,193.3 227.7,201.2 227.7,189.4 158.4,189.4 	"/>
	<circle style="fill:#CED5E0;" cx="158.4" cy="191.3" r="1.9"/>
	<polygon style="fill:#CED5E0;" points="296.4,234 485.9,239.5 303.4,274 	"/>
	<path style="fill:#CED5E0;" d="M204.4,234L23,239.3c-1.1,0-1.2,1.5-0.1,1.7l174.6,33L204.4,234z"/>
</g>
<path style="fill:#FFFFFF;" d="M320.3,273c0,47.2-31.3,66.4-70,66.4s-70-19.3-70-66.4c0-47.2,31.3-104.4,70-104.4
	S320.3,225.8,320.3,273z"/>
<path style="fill:#E6E9EE;" d="M320.4,273c0,47.2-31.4,66.4-70,66.4c-38.7,0-70-19.3-70-66.4c0-8.3,1-16.9,2.8-25.4
	c-0.4,3.7-0.6,7.4-0.6,11c0,45.7,30.3,64.3,67.8,64.3c37.4,0,67.8-18.7,67.8-64.3c0-3.6-0.2-7.3-0.6-11
	C319.4,256.1,320.4,264.7,320.4,273z"/>
<g>
	<path style="fill:#54C0EB;" d="M197.9,236.6c2.7-7.2,7.1-13.7,12.9-18.9l-2.5,16.8C204.7,235.1,201.3,235.8,197.9,236.6z"/>
	<path style="fill:#54C0EB;" d="M247.4,202.8v28.1c-11.5,0.1-22.7,1-33.1,2.6l3.2-21.1C225.9,206.8,236.3,203.3,247.4,202.8z"/>
	<path style="fill:#54C0EB;" d="M286.4,233.5c-10.4-1.6-21.5-2.5-33.1-2.6v-28.1c11.2,0.5,21.5,4,29.9,9.6L286.4,233.5z"/>
	<path style="fill:#54C0EB;" d="M302.9,236.6c-3.4-0.8-6.8-1.5-10.4-2.1l-2.5-16.9C295.7,222.9,300.2,229.4,302.9,236.6z"/>
</g>
<circle style="fill:#E6E9EE;" cx="250.4" cy="278.8" r="17.1"/>
<circle style="fill:#FFFFFF;" cx="364.4" cy="267.3" r="21.5"/>
<circle style="fill:#E6E9EE;" cx="364.4" cy="267.3" r="15.9"/>
<g>
	<circle style="fill:#FFFFFF;" cx="364.4" cy="267.3" r="4.6"/>
	<circle style="fill:#FFFFFF;" cx="421.2" cy="262.9" r="19.1"/>
</g>
<circle style="fill:#E6E9EE;" cx="421.2" cy="262.9" r="14.1"/>
<g>
	<circle style="fill:#FFFFFF;" cx="421.2" cy="262.9" r="4.1"/>
	<circle style="fill:#FFFFFF;" cx="136.4" cy="267.3" r="21.5"/>
</g>
<circle style="fill:#E6E9EE;" cx="136.4" cy="267.3" r="15.9"/>
<g>
	<circle style="fill:#FFFFFF;" cx="136.4" cy="267.3" r="4.6"/>
	<circle style="fill:#FFFFFF;" cx="79.6" cy="262.9" r="19.1"/>
</g>
<circle style="fill:#E6E9EE;" cx="79.6" cy="262.9" r="14.1"/>
<circle style="fill:#FFFFFF;" cx="79.6" cy="262.9" r="4.1"/>
</svg>