<?xml version="1.0" encoding="iso-8859-1"?>
<!-- Uploaded to: SVG Repo, www.svgrepo.com, Generator: SVG Repo Mixer Tools -->
<svg version="1.1" id="Layer_1" xmlns="http://www.w3.org/2000/svg" xmlns:xlink="http://www.w3.org/1999/xlink" 
	 viewBox="0 0 512 512" xml:space="preserve">
<g>
	<path style="fill:#CFDCE5;" d="M64.93,436.124c-1.724,1.736-3.992,2.599-6.26,2.599c-2.268,0-4.536-0.862-6.26-2.599
		C16.149,399.875,5.022,345.672,24.062,298.06l18.851-47.128c6.331-15.815,5.669-33.155-1.169-48.061
		c-2.965-6.473-7.099-12.485-12.331-17.717c-3.461-3.461-3.461-9.071,0-12.532c3.461-3.461,9.071-3.449,12.532,0
		c8.693,8.705,15.048,19.087,18.851,30.249c5.953,17.445,5.705,36.793-1.429,54.64l-18.851,47.128
		c-16.406,41.033-6.827,87.723,24.414,118.965C68.39,427.064,68.39,432.675,64.93,436.124z"/>
	<path style="fill:#CFDCE5;" d="M463.423,436.124c-1.724,1.736-3.992,2.599-6.26,2.599c-2.268,0-4.536-0.862-6.272-2.599
		c-3.449-3.449-3.449-9.059,0-12.52c31.253-31.241,40.832-77.932,24.426-118.965l-18.851-47.128
		c-7.146-17.847-7.394-37.194-1.429-54.64c3.803-11.162,10.146-21.544,18.851-30.249c3.461-3.461,9.071-3.449,12.532,0
		c3.449,3.461,3.449,9.071,0,12.532c-5.232,5.232-9.366,11.244-12.331,17.717c-6.839,14.906-7.512,32.245-1.181,48.061
		l18.851,47.128C510.811,345.672,499.684,399.875,463.423,436.124z"/>
	<path style="fill:#CFDCE5;" d="M207.99,438.439c-0.756,0.189-1.5,0.283-2.244,0.283c-3.933,0-7.524-2.634-8.563-6.614
		c-9.095-34.702-11.894-86.389-7.146-131.674l4.925-47.128c1.736-16.595,1.665-34.655-0.024-50.435
		c-0.85-7.996-2.126-15.402-3.78-21.733c-1.24-4.736,1.595-9.579,6.331-10.819c4.725-1.228,9.567,1.595,10.807,6.331
		c1.996,7.607,3.484,16.571,4.429,26.221c1.63,16.619,1.642,35.222-0.142,52.277l-4.937,47.128
		c-4.536,43.348-1.913,92.542,6.673,125.343C215.561,432.356,212.726,437.199,207.99,438.439z"/>
	<path style="fill:#CFDCE5;" d="M318.651,432.108c-1.039,3.98-4.63,6.614-8.563,6.614c-0.744,0-1.5-0.094-2.244-0.283
		c-4.736-1.24-7.571-6.083-6.331-10.819c8.587-32.8,11.209-81.995,6.662-125.343l-4.925-47.128
		c-1.784-17.056-1.772-35.659-0.142-52.277c0.945-9.65,2.433-18.615,4.429-26.221c1.228-4.736,6.071-7.571,10.807-6.331
		c4.736,1.24,7.571,6.083,6.331,10.819c-1.654,6.331-2.929,13.748-3.78,21.733c-1.701,15.78-1.772,33.84-0.035,50.435l4.937,47.128
		C330.545,345.719,327.734,397.406,318.651,432.108z"/>
	<path style="fill:#CFDCE5;" d="M264.862,178.895v250.969c0,4.89-3.969,8.859-8.859,8.859c-4.902,0-8.859-3.969-8.859-8.859V178.895
		c0-4.89,3.957-8.859,8.859-8.859C260.893,170.036,264.862,174.005,264.862,178.895z"/>
	<path style="fill:#CFDCE5;" d="M113.274,436.939c-1.595,1.205-3.461,1.784-5.315,1.784c-2.693,0-5.339-1.217-7.087-3.532
		c-27.036-35.93-35.387-89.46-21.261-136.386l14.197-47.128c4.843-16.099,4.441-33.674-0.602-48.805
		c-2.291-6.839-5.516-13.17-9.638-18.65c-2.941-3.91-2.15-9.461,1.76-12.402c3.898-2.953,9.461-2.161,12.402,1.748
		c6.366,8.457,11.044,18.508,13.878,29.304c4.559,17.221,4.453,36.332-0.839,53.907l-14.186,47.128
		c-12.556,41.706-5.315,89.058,18.449,120.63C117.975,428.446,117.183,433.998,113.274,436.939z"/>
	<path style="fill:#CFDCE5;" d="M414.961,435.191c-1.748,2.315-4.406,3.532-7.087,3.532c-1.854,0-3.732-0.579-5.327-1.784
		c-3.91-2.941-4.689-8.492-1.748-12.402c23.765-31.572,31.005-78.924,18.449-120.63l-14.186-47.128
		c-5.292-17.575-5.398-36.686-0.839-53.907c2.835-10.796,7.512-20.847,13.878-29.304c2.941-3.91,8.492-4.701,12.402-1.748
		c3.91,2.941,4.701,8.492,1.76,12.402c-4.122,5.48-7.347,11.811-9.626,18.65c-5.055,15.13-5.469,32.694-0.614,48.805l14.186,47.128
		C450.348,345.731,441.997,399.26,414.961,435.191z"/>
	<path style="fill:#CFDCE5;" d="M162.433,437.789c-1.264,0.638-2.622,0.933-3.945,0.933c-3.248,0-6.378-1.795-7.937-4.902
		c-17.658-35.399-23.127-88.078-13.926-134.201l9.414-47.128c3.213-16.099,2.965-34.123-0.283-49.62
		c-1.547-7.406-3.791-14.245-6.673-20.02c-2.185-4.382-0.402-9.697,3.969-11.882c4.382-2.185,9.697-0.413,11.882,3.969
		c4.04,8.091,7.028,17.658,8.87,27.934c3.071,16.938,3.059,35.789-0.39,53.092L154,303.092
		c-8.481,42.509-3.614,90.712,12.402,122.815C168.587,430.289,166.815,435.604,162.433,437.789z"/>
	<path style="fill:#CFDCE5;" d="M365.27,433.821c-1.547,3.106-4.677,4.902-7.925,4.902c-1.335,0-2.681-0.295-3.945-0.933
		c-4.382-2.185-6.166-7.5-3.98-11.882c16.028-32.103,20.894-80.306,12.402-122.815l-9.402-47.128
		c-3.461-17.304-3.473-36.155-0.402-53.092c1.854-10.276,4.843-19.843,8.882-27.934c2.185-4.382,7.5-6.154,11.882-3.969
		c4.37,2.185,6.154,7.5,3.969,11.882c-2.882,5.776-5.126,12.615-6.685,20.02c-3.248,15.497-3.484,33.521-0.272,49.62l9.402,47.128
		C388.409,345.743,382.94,398.422,365.27,433.821z"/>
</g>
<path style="fill:#8DE0A8;" d="M169.015,48.644c-0.967-4.795-5.63-7.899-10.437-6.931c-8.633,1.742-16.304,4.634-23.013,8.333
	l-0.539-2.745c-0.943-4.8-5.586-7.93-10.399-6.989c-4.8,0.941-7.93,5.596-6.989,10.398l2.173,11.086
	c-3.582,3.562-6.65,7.395-9.177,11.385c-9.143-14.443-25.261-26.89-47.94-31.468c-4.794-0.967-9.47,2.136-10.437,6.931
	c-0.967,4.795,2.136,9.468,6.93,10.437c4.921,0.993,9.851,2.68,14.524,4.942c-3.652,2.787-4.596,7.96-2.043,11.87
	c1.698,2.604,4.534,4.019,7.427,4.019c1.66,0,3.338-0.467,4.832-1.44l5.456-3.559c7.223,7.073,12.075,15.937,12.401,25.763
	c-0.028,0.993-0.037,1.982,0,2.959c0.001,0.037,0.007,0.072,0.009,0.107c0.008,0.158,0.025,0.314,0.041,0.47
	c0.014,0.137,0.026,0.274,0.046,0.41c0.024,0.152,0.054,0.302,0.085,0.452c0.028,0.137,0.054,0.274,0.089,0.408
	c0.035,0.139,0.078,0.275,0.12,0.412c0.044,0.141,0.085,0.281,0.136,0.419c0.045,0.125,0.097,0.246,0.148,0.369
	c0.059,0.143,0.118,0.286,0.184,0.424c0.054,0.113,0.113,0.223,0.172,0.333c0.074,0.141,0.149,0.28,0.231,0.415
	c0.064,0.106,0.132,0.208,0.2,0.311c0.086,0.131,0.174,0.261,0.267,0.387c0.076,0.102,0.155,0.2,0.234,0.299
	c0.096,0.118,0.193,0.236,0.294,0.35c0.087,0.098,0.18,0.191,0.27,0.286c0.103,0.105,0.206,0.208,0.313,0.307
	c0.1,0.093,0.206,0.183,0.311,0.272c0.107,0.091,0.216,0.18,0.327,0.266c0.112,0.086,0.228,0.168,0.345,0.249
	c0.113,0.079,0.228,0.155,0.345,0.228c0.122,0.076,0.246,0.148,0.371,0.219c0.122,0.067,0.244,0.133,0.369,0.195
	c0.126,0.064,0.255,0.123,0.386,0.181c0.132,0.058,0.266,0.112,0.4,0.164c0.129,0.05,0.257,0.096,0.389,0.138
	c0.145,0.048,0.292,0.091,0.441,0.131c0.126,0.034,0.254,0.067,0.384,0.096c0.158,0.035,0.318,0.065,0.477,0.092
	c0.128,0.021,0.255,0.041,0.384,0.057c0.163,0.02,0.328,0.033,0.494,0.044c0.083,0.006,0.164,0.019,0.247,0.022
	c0.11,0.005,0.22,0.006,0.327,0.006c0.002,0,0.005,0,0.007,0c0.001,0,0.004,0,0.006,0c0.002,0,0.004,0,0.006,0
	c0.002,0,0.005,0,0.007,0c0.107,0,0.217-0.002,0.326-0.006c0.084-0.004,0.164-0.017,0.247-0.022
	c0.167-0.011,0.332-0.024,0.496-0.044c0.129-0.015,0.255-0.035,0.382-0.057c0.162-0.027,0.321-0.057,0.48-0.092
	c0.129-0.028,0.255-0.061,0.382-0.096c0.149-0.04,0.296-0.084,0.443-0.132c0.13-0.043,0.259-0.089,0.386-0.137
	c0.136-0.052,0.269-0.106,0.403-0.165c0.13-0.057,0.259-0.117,0.385-0.18c0.124-0.061,0.246-0.126,0.367-0.195
	c0.126-0.071,0.252-0.144,0.374-0.221c0.116-0.072,0.228-0.148,0.34-0.224c0.119-0.083,0.236-0.165,0.351-0.253
	c0.11-0.084,0.215-0.171,0.32-0.26c0.109-0.091,0.215-0.183,0.319-0.279c0.104-0.097,0.204-0.197,0.304-0.298
	c0.096-0.097,0.19-0.195,0.281-0.296c0.098-0.11,0.19-0.222,0.283-0.337c0.084-0.103,0.167-0.206,0.246-0.312
	c0.089-0.12,0.172-0.246,0.255-0.371c0.072-0.109,0.145-0.217,0.211-0.33c0.078-0.129,0.149-0.261,0.22-0.395
	c0.063-0.117,0.125-0.234,0.183-0.354c0.063-0.132,0.119-0.268,0.176-0.404c0.053-0.129,0.107-0.257,0.156-0.389
	c0.047-0.131,0.087-0.266,0.129-0.4c0.044-0.142,0.089-0.283,0.125-0.429c0.033-0.13,0.058-0.262,0.086-0.395
	c0.032-0.155,0.064-0.308,0.087-0.464c0.02-0.132,0.032-0.267,0.046-0.4c0.017-0.158,0.034-0.315,0.041-0.476
	c0.002-0.037,0.008-0.071,0.009-0.107c0.038-0.977,0.03-1.965,0-2.959c0.692-20.846,21.753-37.39,42.597-41.597
	C166.88,58.112,169.983,53.44,169.015,48.644z"/>
<rect x="24.694" y="423.959" style="fill:#FCD577;" width="466.445" height="47.895"/>
<polygon style="fill:#FF6F52;" points="147.841,103.296 75.204,103.296 82.074,172.987 140.972,172.987 "/>
<polygon style="fill:#E25749;" points="75.204,103.296 82.074,172.987 94.267,172.987 93.303,103.296 "/>
<g>
	<path style="fill:#BAC6CC;" d="M41.945,172.623c8.693,8.705,15.048,19.087,18.851,30.249H41.744
		c-2.965-6.473-7.099-12.485-12.331-17.717c-3.461-3.461-3.461-9.071,0-12.532C32.874,169.162,38.484,169.174,41.945,172.623z"/>
	<path style="fill:#BAC6CC;" d="M97.73,173.568c6.366,8.457,11.044,18.508,13.878,29.304H93.206
		c-2.291-6.839-5.516-13.17-9.638-18.65c-2.941-3.91-2.15-9.461,1.76-12.402C89.226,168.867,94.789,169.658,97.73,173.568z"/>
	<path style="fill:#BAC6CC;" d="M154.933,174.938c4.039,8.091,7.028,17.658,8.87,27.934h-18.048
		c-1.547-7.406-3.791-14.245-6.673-20.02c-2.185-4.382-0.402-9.697,3.969-11.882C147.432,168.784,152.748,170.556,154.933,174.938z"
		/>
	<path style="fill:#BAC6CC;" d="M208.297,176.651c1.996,7.607,3.484,16.571,4.429,26.221h-17.788
		c-0.85-7.996-2.126-15.402-3.78-21.733c-1.24-4.736,1.595-9.579,6.331-10.819C202.214,169.091,207.056,171.914,208.297,176.651z"/>
	<path style="fill:#BAC6CC;" d="M264.862,178.895v23.977h-17.717v-23.977c0-4.89,3.957-8.859,8.859-8.859
		C260.893,170.036,264.862,174.005,264.862,178.895z"/>
	<path style="fill:#BAC6CC;" d="M324.674,181.139c-1.654,6.331-2.929,13.748-3.78,21.733h-17.788
		c0.945-9.65,2.433-18.615,4.429-26.221c1.228-4.736,6.071-7.571,10.807-6.331C323.08,171.56,325.915,176.403,324.674,181.139z"/>
	<path style="fill:#BAC6CC;" d="M376.751,182.852c-2.882,5.776-5.126,12.615-6.685,20.02h-18.048
		c1.854-10.276,4.843-19.843,8.882-27.934c2.185-4.382,7.5-6.154,11.882-3.969C377.153,173.154,378.936,178.47,376.751,182.852z"/>
	<path style="fill:#BAC6CC;" d="M432.265,184.222c-4.122,5.48-7.347,11.811-9.626,18.65h-18.414
		c2.835-10.796,7.512-20.847,13.878-29.304c2.941-3.91,8.492-4.701,12.402-1.748C434.414,174.761,435.206,180.312,432.265,184.222z"
		/>
	<path style="fill:#BAC6CC;" d="M486.42,185.155c-5.232,5.232-9.366,11.244-12.331,17.717h-19.052
		c3.803-11.162,10.146-21.544,18.851-30.249c3.461-3.461,9.071-3.449,12.532,0C489.869,176.084,489.869,181.694,486.42,185.155z"/>
</g>
<path style="fill:#CFDCE5;" d="M482.068,187.751H29.932C13.427,187.751,0,174.323,0,157.819c0-16.505,13.427-29.932,29.932-29.932
	c4.893,0,8.859,3.966,8.859,8.859s-3.965,8.859-8.859,8.859c-6.735,0-12.215,5.48-12.215,12.215s5.48,12.215,12.215,12.215h452.135
	c6.735,0,12.215-5.48,12.215-12.215s-5.48-12.215-12.215-12.215c-4.893,0-8.859-3.966-8.859-8.859c0-4.892,3.965-8.859,8.859-8.859
	c16.505,0,29.932,13.427,29.932,29.932C512,174.323,498.572,187.751,482.068,187.751z"/>
</svg>