<?xml version="1.0" encoding="iso-8859-1"?>
<!-- Uploaded to: SVG Repo, www.svgrepo.com, Generator: SVG Repo Mixer Tools -->
<svg height="800px" width="800px" version="1.1" id="Layer_1" xmlns="http://www.w3.org/2000/svg" xmlns:xlink="http://www.w3.org/1999/xlink" 
	 viewBox="0 0 511.991 511.991" xml:space="preserve">
<path style="fill:#E6E9ED;" d="M479.992,373.321H32c-5.891,0-10.664,4.766-10.664,10.672v32c0,5.875,4.773,10.656,10.664,10.656
	h447.992c5.891,0,10.656-4.781,10.656-10.656v-32C490.648,378.087,485.883,373.321,479.992,373.321z"/>
<g>
	<path style="fill:#EAAD7A;" d="M95.999,437.321c-5.891,0-10.663-4.781-10.663-10.672V234.652c0-5.891,4.772-10.656,10.663-10.656
		s10.664,4.766,10.664,10.656V426.65C106.663,432.54,101.89,437.321,95.999,437.321z"/>
	<path style="fill:#EAAD7A;" d="M159.997,437.321c-5.891,0-10.664-4.781-10.664-10.672V234.652c0-5.891,4.773-10.656,10.664-10.656
		s10.664,4.766,10.664,10.656V426.65C170.661,432.54,165.889,437.321,159.997,437.321z"/>
	<path style="fill:#EAAD7A;" d="M223.997,437.321c-5.891,0-10.664-4.781-10.664-10.672V234.652c0-5.891,4.773-10.656,10.664-10.656
		s10.664,4.766,10.664,10.656V426.65C234.66,432.54,229.887,437.321,223.997,437.321z"/>
	<path style="fill:#EAAD7A;" d="M287.996,437.321c-5.891,0-10.656-4.781-10.656-10.672V234.652c0-5.891,4.766-10.656,10.656-10.656
		s10.656,4.766,10.656,10.656V426.65C298.652,432.54,293.887,437.321,287.996,437.321z"/>
	<path style="fill:#EAAD7A;" d="M351.995,437.321c-5.891,0-10.656-4.781-10.656-10.672V234.652c0-5.891,4.766-10.656,10.656-10.656
		s10.655,4.766,10.655,10.656V426.65C362.65,432.54,357.886,437.321,351.995,437.321z"/>
	<path style="fill:#EAAD7A;" d="M415.993,437.321c-5.891,0-10.656-4.781-10.656-10.672V234.652c0-5.891,4.766-10.656,10.656-10.656
		s10.656,4.766,10.656,10.656V426.65C426.649,432.54,421.884,437.321,415.993,437.321z"/>
</g>
<g>
	<path style="fill:#F4BE8E;" d="M479.992,469.319H32c-5.891,0-10.664-4.781-10.664-10.672v-21.326
		c0-5.891,4.773-10.672,10.664-10.672h447.992c5.891,0,10.656,4.781,10.656,10.672v21.326
		C490.648,464.538,485.883,469.319,479.992,469.319z"/>
	<path style="fill:#F4BE8E;" d="M479.992,213.324H32c-5.891,0-10.664,4.766-10.664,10.672c0,5.875,4.773,10.656,10.664,10.656
		h447.992c5.891,0,10.656-4.781,10.656-10.656C490.648,218.089,485.883,213.324,479.992,213.324z"/>
</g>
<g>
	<path style="fill:#FFD2A6;" d="M32,511.991c-5.891,0-10.664-4.781-10.664-10.672V181.325c0-5.891,4.773-10.672,10.664-10.672
		s10.664,4.781,10.664,10.672v319.994C42.664,507.21,37.891,511.991,32,511.991z"/>
	<path style="fill:#FFD2A6;" d="M479.992,511.991c-5.891,0-10.655-4.781-10.655-10.672V181.325c0-5.891,4.765-10.672,10.655-10.672
		s10.656,4.781,10.656,10.672v319.994C490.648,507.21,485.883,511.991,479.992,511.991z"/>
	<path style="fill:#FFD2A6;" d="M255.995,85.327c-5.891,0-10.663-4.781-10.663-10.672V10.656C245.333,4.765,250.105,0,255.995,0
		c5.891,0,10.664,4.766,10.664,10.656v63.999C266.66,80.545,261.887,85.327,255.995,85.327z"/>
	<path style="fill:#FFD2A6;" d="M181.333,127.997c-5.891,0-10.672-4.781-10.672-10.672v-42.67c0-5.891,4.781-10.656,10.672-10.656
		s10.664,4.766,10.664,10.656v42.671C191.997,123.216,187.225,127.997,181.333,127.997z"/>
	<path style="fill:#FFD2A6;" d="M330.651,127.997c-5.875,0-10.655-4.781-10.655-10.672v-42.67c0-5.891,4.78-10.656,10.655-10.656
		c5.906,0,10.688,4.766,10.688,10.656v42.671C341.339,123.216,336.558,127.997,330.651,127.997z"/>
	<path style="fill:#FFD2A6;" d="M255.995,149.325c-5.891,0-10.663-4.781-10.663-10.672V74.655c0-5.891,4.772-10.656,10.663-10.656
		c5.891,0,10.664,4.766,10.664,10.656v63.999C266.66,144.544,261.887,149.325,255.995,149.325z"/>
</g>
<path style="fill:#A0D468;" d="M255.995,127.997c-17.647,0-31.999,14.343-31.999,32c0,17.641,14.352,32,31.999,32
	c17.656,0,32-14.359,32-32C287.996,142.341,273.652,127.997,255.995,127.997z"/>
<path style="fill:#ED5564;" d="M330.651,106.654c-17.624,0-31.999,14.359-31.999,31.999c0,17.641,14.375,32,31.999,32
	c17.656,0,31.999-14.359,31.999-32C362.65,121.013,348.308,106.654,330.651,106.654z"/>
<path style="fill:#AC92EB;" d="M181.333,106.654c-17.648,0-32,14.359-32,31.999c0,17.641,14.352,32,32,32
	c17.64,0,31.999-14.359,31.999-32C213.333,121.013,198.973,106.654,181.333,106.654z"/>
<g>
	<path style="fill:#FFCE54;" d="M32,127.997c-17.647,0-31.999,14.343-31.999,32c0,17.641,14.352,32,31.999,32
		c17.648,0,32-14.359,32-32C64,142.341,49.648,127.997,32,127.997z"/>
	<path style="fill:#FFCE54;" d="M479.992,127.997c-17.655,0-31.999,14.343-31.999,32c0,17.641,14.344,32,31.999,32
		c17.656,0,31.999-14.359,31.999-32C511.991,142.341,497.648,127.997,479.992,127.997z"/>
</g>
<path style="fill:#A85D5D;" d="M351.995,85.327H159.997c-5.891,0-10.664-4.781-10.664-10.672s4.773-10.656,10.664-10.656h191.997
	c5.891,0,10.655,4.766,10.655,10.656S357.886,85.327,351.995,85.327z"/>
</svg>