<?xml version="1.0" encoding="iso-8859-1"?>
<!-- Uploaded to: SVG Repo, www.svgrepo.com, Generator: SVG Repo Mixer Tools -->
<svg height="800px" width="800px" version="1.1" id="Layer_1" xmlns="http://www.w3.org/2000/svg" xmlns:xlink="http://www.w3.org/1999/xlink" 
	 viewBox="0 0 512 512" xml:space="preserve">
<circle style="fill:#FF7F4F;" cx="256" cy="256" r="256"/>
<path style="fill:#E84C2D;" d="M511.076,277.694l-73.721-73.723L73.623,221.396L217.5,350.815l-80.756,70.57l88.833,88.809
	C235.554,511.374,245.703,512,256,512C390.077,512,500.062,408.922,511.076,277.694z"/>
<path style="fill:#FEE187;" d="M267.779,316.337l107.105-93.717c3.225-2.822,3.553-7.721,0.731-10.947
	c-2.822-3.225-7.721-3.555-10.947-0.731L256,306.029l-108.67-95.085c-3.225-2.824-8.125-2.491-10.947,0.731
	c-2.822,3.224-2.494,8.125,0.731,10.947l107.105,93.717l-107.105,93.717c-3.225,2.822-3.553,7.721-0.731,10.947
	c1.534,1.755,3.682,2.65,5.842,2.65c1.814,0,3.632-0.631,5.104-1.919L256,326.647l108.67,95.085
	c1.472,1.288,3.291,1.919,5.104,1.919c2.16,0,4.308-0.898,5.842-2.65c2.822-3.224,2.494-8.125-0.731-10.947L267.779,316.337z"/>
<path style="fill:#FFC61B;" d="M267.779,316.337l107.105-93.717c3.225-2.822,3.553-7.721,0.731-10.947
	c-2.822-3.225-7.721-3.555-10.947-0.731L256,306.029l-0.143-0.126v20.866l0.143-0.126l108.67,95.085
	c1.472,1.288,3.291,1.919,5.104,1.919c2.16,0,4.308-0.898,5.842-2.65c2.822-3.224,2.494-8.125-0.731-10.947L267.779,316.337z"/>
<path style="fill:#940030;" d="M85.333,227.556h341.333c7.854,0,14.222-6.368,14.222-14.222l0,0c0-7.854-6.368-14.222-14.222-14.222
	H85.333c-7.854,0-14.222,6.368-14.222,14.222l0,0C71.111,221.187,77.479,227.556,85.333,227.556z"/>
<path style="fill:#7A002C;" d="M426.667,199.111h-170.81v28.444h170.81c7.854,0,14.222-6.368,14.222-14.222
	S434.521,199.111,426.667,199.111z"/>
</svg>