<?xml version="1.0" encoding="iso-8859-1"?>
<!-- Uploaded to: SVG Repo, www.svgrepo.com, Generator: SVG Repo Mixer Tools -->
<svg version="1.1" id="Layer_1" xmlns="http://www.w3.org/2000/svg" xmlns:xlink="http://www.w3.org/1999/xlink" 
	 viewBox="0 0 511.996 511.996" xml:space="preserve">
<path style="fill:#E6E9ED;" d="M458.669,501.324c0,5.891-4.781,10.672-10.672,10.672H63.999c-5.891,0-10.672-4.781-10.672-10.672
	V10.656C53.327,4.765,58.108,0,63.999,0h383.998c5.891,0,10.672,4.766,10.672,10.656V501.324z"/>
<path style="fill:#434A54;" d="M409.997,309.326c0,85.047-68.952,153.999-153.999,153.999c-85.046,0-153.999-68.952-153.999-153.999
	s68.953-153.999,153.999-153.999C341.045,155.327,409.997,224.279,409.997,309.326z"/>
<path style="fill:#5D9CEC;" d="M409.997,309.326c0-0.109,0-0.203,0-0.312c-5.484-5.25-79.702-73.797-153.812,0.312
	c-74.125,74.109-148.687,5.562-154.187,0.312c0.172,84.906,69.047,153.687,153.999,153.687
	C341.045,463.325,409.997,394.373,409.997,309.326z"/>
<path style="fill:#4A89DC;" d="M408.81,328.451c-11.078-10.125-81.905-69.312-152.624,1.406
	c-69.859,69.858-140.14,12.969-152.562,1.812c10.812,74.453,74.905,131.656,152.374,131.656
	C334.576,463.325,399.403,404.466,408.81,328.451z"/>
<g>
	<path style="fill:#5D9CEC;" d="M223.998,42.655c0,5.891-4.781,10.672-10.672,10.672s-10.656-4.781-10.656-10.672
		s4.766-10.656,10.656-10.656S223.998,36.765,223.998,42.655z"/>
	<path style="fill:#5D9CEC;" d="M266.67,42.655c0,5.891-4.781,10.672-10.672,10.672c-5.891,0-10.672-4.781-10.672-10.672
		s4.781-10.656,10.672-10.656C261.889,31.999,266.67,36.765,266.67,42.655z"/>
	<path style="fill:#5D9CEC;" d="M309.326,42.655c0,5.891-4.766,10.672-10.656,10.672s-10.672-4.781-10.672-10.672
		s4.781-10.656,10.672-10.656S309.326,36.765,309.326,42.655z"/>
</g>
<g>
	<polygon style="fill:#CCD1D9;" points="351.997,85.327 351.997,0 330.67,0 330.67,85.327 181.326,85.327 181.326,0 159.999,0 
		159.999,85.327 53.327,85.327 53.327,106.655 458.669,106.655 458.669,85.327 	"/>
	<path style="fill:#CCD1D9;" d="M394.669,10.656h21.328c5.891,0,10.672-4.766,10.672-10.656h-42.672
		C383.997,5.891,388.778,10.656,394.669,10.656z"/>
	<rect x="88.048" y="25.561" style="fill:#CCD1D9;" width="38" height="34"/>
</g>
<path style="fill:#AAB2BC;" d="M106.671,10.656c-17.672,0-32,14.328-32,31.999c0,17.688,14.328,32,32,32s32-14.312,32-32
	C138.671,24.984,124.343,10.656,106.671,10.656z M106.671,53.327c-5.891,0-10.672-4.781-10.672-10.672
	c0-5.875,4.781-10.656,10.672-10.656c5.875,0,10.656,4.781,10.656,10.656C117.327,48.546,112.546,53.327,106.671,53.327z"/>
<g>
	<path style="fill:#CCD1D9;" d="M255.998,149.327c-88.358,0-159.999,71.64-159.999,159.999c0,88.358,71.641,159.999,159.999,159.999
		c88.359,0,159.999-71.641,159.999-159.999C415.997,220.967,344.357,149.327,255.998,149.327z M354.044,407.372
		c-12.733,12.75-27.562,22.75-44.077,29.734c-17.078,7.219-35.234,10.891-53.969,10.891s-36.891-3.672-53.969-10.891
		c-16.516-6.984-31.343-16.984-44.077-29.734c-12.75-12.733-22.75-27.562-29.734-44.077c-7.219-17.078-10.891-35.234-10.891-53.969
		s3.672-36.891,10.891-53.969c6.984-16.516,16.984-31.344,29.734-44.078c12.734-12.749,27.562-22.749,44.077-29.733
		c17.078-7.219,35.234-10.891,53.969-10.891s36.891,3.672,53.969,10.891c16.516,6.984,31.344,16.984,44.077,29.733
		c12.75,12.734,22.75,27.562,29.734,44.078c7.219,17.078,10.891,35.234,10.891,53.969s-3.672,36.891-10.891,53.969
		C376.794,379.81,366.794,394.639,354.044,407.372z"/>
	<path style="fill:#CCD1D9;" d="M405.325,339.998c0,5.859-4.797,10.656-10.656,10.656h-42.672c-5.858,0-10.671-4.797-10.671-10.656
		v-61.344c0-5.859,4.812-10.656,10.671-10.656h42.672c5.859,0,10.656,4.797,10.656,10.656V339.998z"/>
</g>
</svg>